<?xml version="1.0" standalone="no"?>
<!DOCTYPE svg PUBLIC "-//W3C//DTD SVG 20010904//EN"
 "http://www.w3.org/TR/2001/REC-SVG-20010904/DTD/svg10.dtd">
<svg version="1.0" xmlns="http://www.w3.org/2000/svg"
 width="96.000000pt" height="96.000000pt" viewBox="0 0 96.000000 96.000000"
 preserveAspectRatio="xMidYMid meet">

<g transform="translate(0.000000,96.000000) scale(0.100000,-0.100000)"
fill="#000000" stroke="none">
<path d="M120 780 l0 -140 -40 0 -40 0 0 -180 0 -180 40 0 40 0 0 -60 0 -60
-40 0 -40 0 0 -40 0 -40 40 0 40 0 0 40 0 40 60 0 60 0 0 -40 0 -40 -40 0 -40
0 0 -40 0 -40 40 0 40 0 0 40 0 40 240 0 240 0 0 -40 0 -40 40 0 40 0 0 40 0
40 -40 0 -40 0 0 40 0 40 60 0 60 0 0 -40 0 -40 40 0 40 0 0 40 0 40 -40 0
-40 0 0 60 0 60 40 0 40 0 0 180 0 180 -40 0 -40 0 0 140 0 140 -60 0 -60 0 0
-40 0 -40 -40 0 -40 0 0 -40 0 -40 -160 0 -160 0 0 40 0 40 -40 0 -40 0 0 40
0 40 -60 0 -60 0 0 -140z m120 -60 c0 -33 3 -40 20 -40 17 0 20 -7 20 -40 l0
-40 40 0 40 0 0 40 0 40 40 0 40 0 0 -40 0 -40 40 0 40 0 0 40 0 40 40 0 40 0
0 -40 0 -40 40 0 40 0 0 40 c0 33 3 40 20 40 17 0 20 7 20 40 0 33 3 40 20 40
19 0 20 -7 20 -100 l0 -100 40 0 40 0 0 -100 0 -100 -40 0 -40 0 0 -60 0 -60
-60 0 -60 0 0 -40 0 -40 -60 0 -60 0 0 60 c0 53 2 60 20 60 17 0 20 7 20 40
l0 40 -80 0 -80 0 0 -40 c0 -33 3 -40 20 -40 18 0 20 -7 20 -60 l0 -60 -60 0
-60 0 0 40 0 40 -60 0 -60 0 0 60 0 60 -40 0 -40 0 0 100 0 100 40 0 40 0 0
100 c0 93 1 100 20 100 17 0 20 -7 20 -40z"/>
<path d="M280 480 l0 -40 40 0 40 0 0 40 0 40 -40 0 -40 0 0 -40z"/>
<path d="M600 480 l0 -40 40 0 40 0 0 40 0 40 -40 0 -40 0 0 -40z"/>
</g>
</svg>
